<svg xmlns="http://www.w3.org/2000/svg" xmlns:xlink="http://www.w3.org/1999/xlink" width="240" zoomAndPan="magnify" viewBox="0 0 180 251.999989" height="336" preserveAspectRatio="xMidYMid meet" version="1.0"><defs><g/></defs><rect x="-18" width="216" fill="#ffffff" y="-25.199999" height="302.399987" fill-opacity="1"/><rect x="-18" width="216" fill="#49326b" y="-25.199999" height="302.399987" fill-opacity="1"/><g fill="#fffff6" fill-opacity="1"><g transform="translate(33.878907, 120.625075)"><g><path d="M 5.796875 -0.1875 C 5.859375 -0.1875 5.890625 -0.15625 5.890625 -0.09375 C 5.890625 -0.03125 5.859375 0 5.796875 0 L 0.09375 0 C 0.03125 0 0 -0.03125 0 -0.09375 C 0 -0.15625 0.03125 -0.1875 0.09375 -0.1875 C 0.695312 -0.1875 1.191406 -0.253906 1.578125 -0.390625 C 2.023438 -0.554688 2.25 -0.785156 2.25 -1.078125 C 2.25 -1.078125 2.25 -1.082031 2.25 -1.09375 L 2.25 -12.34375 C 2.25 -12.644531 2.023438 -12.875 1.578125 -13.03125 C 1.191406 -13.175781 0.695312 -13.25 0.09375 -13.25 C 0.03125 -13.25 0 -13.273438 0 -13.328125 C 0 -13.398438 0.03125 -13.4375 0.09375 -13.4375 L 5.796875 -13.4375 C 5.859375 -13.4375 5.890625 -13.398438 5.890625 -13.328125 C 5.890625 -13.273438 5.859375 -13.25 5.796875 -13.25 C 5.191406 -13.25 4.695312 -13.175781 4.3125 -13.03125 C 3.863281 -12.863281 3.640625 -12.632812 3.640625 -12.34375 L 3.640625 -1.078125 C 3.640625 -0.785156 3.863281 -0.554688 4.3125 -0.390625 C 4.695312 -0.253906 5.191406 -0.1875 5.796875 -0.1875 Z M 5.796875 -0.1875 "/></g></g></g><g fill="#fffff6" fill-opacity="1"><g transform="translate(40.53106, 120.625075)"><g><path d="M 16.390625 -0.1875 C 16.453125 -0.1875 16.484375 -0.15625 16.484375 -0.09375 C 16.484375 -0.03125 16.453125 0 16.390625 0 L 11.296875 0 C 11.234375 0 11.203125 -0.03125 11.203125 -0.09375 C 11.203125 -0.15625 11.234375 -0.1875 11.296875 -0.1875 C 11.867188 -0.1875 12.285156 -0.238281 12.546875 -0.34375 C 12.804688 -0.457031 12.988281 -0.570312 13.09375 -0.6875 C 13.164062 -0.769531 13.203125 -0.847656 13.203125 -0.921875 C 13.210938 -1.003906 13.21875 -1.050781 13.21875 -1.0625 L 10.796875 -10.9375 L 8.71875 -3.953125 C 8.707031 -3.898438 8.675781 -3.875 8.625 -3.875 L 8.25 -3.875 C 8.238281 -3.875 8.234375 -3.875 8.234375 -3.875 L 7.859375 -3.875 C 7.816406 -3.875 7.785156 -3.898438 7.765625 -3.953125 L 5.6875 -10.9375 L 3.265625 -1.0625 C 3.265625 -1.050781 3.265625 -1.003906 3.265625 -0.921875 C 3.273438 -0.847656 3.320312 -0.769531 3.40625 -0.6875 C 3.488281 -0.570312 3.660156 -0.457031 3.921875 -0.34375 C 4.191406 -0.238281 4.609375 -0.1875 5.171875 -0.1875 C 5.234375 -0.1875 5.265625 -0.15625 5.265625 -0.09375 C 5.265625 -0.03125 5.234375 0 5.171875 0 L 0.09375 0 C 0.03125 0 0 -0.03125 0 -0.09375 C 0 -0.15625 0.03125 -0.1875 0.09375 -0.1875 C 0.5625 -0.1875 0.921875 -0.238281 1.171875 -0.34375 C 1.421875 -0.445312 1.601562 -0.550781 1.71875 -0.65625 C 1.84375 -0.757812 1.921875 -0.859375 1.953125 -0.953125 C 1.984375 -1.046875 2 -1.09375 2 -1.09375 C 2 -1.101562 2 -1.109375 2 -1.109375 L 4.96875 -13.328125 C 4.96875 -13.347656 4.972656 -13.367188 4.984375 -13.390625 C 5.003906 -13.421875 5.03125 -13.4375 5.0625 -13.4375 L 6.28125 -13.4375 C 6.3125 -13.4375 6.335938 -13.421875 6.359375 -13.390625 C 6.367188 -13.367188 6.375 -13.347656 6.375 -13.328125 L 8.25 -4.4375 L 10.09375 -13.328125 C 10.09375 -13.347656 10.097656 -13.367188 10.109375 -13.390625 C 10.128906 -13.421875 10.15625 -13.4375 10.1875 -13.4375 L 11.421875 -13.4375 C 11.453125 -13.4375 11.476562 -13.421875 11.5 -13.390625 C 11.507812 -13.367188 11.515625 -13.347656 11.515625 -13.328125 L 14.46875 -1.109375 C 14.46875 -1.097656 14.484375 -1.046875 14.515625 -0.953125 C 14.554688 -0.859375 14.640625 -0.757812 14.765625 -0.65625 C 14.867188 -0.550781 15.046875 -0.445312 15.296875 -0.34375 C 15.554688 -0.238281 15.921875 -0.1875 16.390625 -0.1875 Z M 16.390625 -0.1875 "/></g></g></g><g fill="#fffff6" fill-opacity="1"><g transform="translate(57.768939, 120.625075)"><g><path d="M 7.75 -5.859375 L 5.796875 -12.890625 L 4.203125 -4.1875 L 4.796875 -4.296875 C 5.617188 -4.503906 6.265625 -4.734375 6.734375 -4.984375 C 7.210938 -5.234375 7.550781 -5.523438 7.75 -5.859375 Z M 12.625 -0.1875 C 12.6875 -0.1875 12.71875 -0.15625 12.71875 -0.09375 C 12.71875 -0.03125 12.6875 0 12.625 0 L 6.90625 0 C 6.84375 0 6.8125 -0.03125 6.8125 -0.09375 C 6.8125 -0.15625 6.84375 -0.1875 6.90625 -0.1875 C 7.570312 -0.1875 8.054688 -0.242188 8.359375 -0.359375 C 8.660156 -0.472656 8.859375 -0.59375 8.953125 -0.71875 C 9.023438 -0.800781 9.0625 -0.875 9.0625 -0.9375 C 9.0625 -1.007812 9.0625 -1.050781 9.0625 -1.0625 L 8.078125 -4.640625 L 6.71875 -4.40625 C 6.007812 -4.226562 5.4375 -4.035156 5 -3.828125 C 4.570312 -3.628906 4.25 -3.40625 4.03125 -3.15625 L 3.640625 -1.0625 C 3.640625 -1.0625 3.640625 -1.023438 3.640625 -0.953125 C 3.640625 -0.878906 3.675781 -0.800781 3.75 -0.71875 C 3.851562 -0.59375 4.050781 -0.472656 4.34375 -0.359375 C 4.644531 -0.242188 5.128906 -0.1875 5.796875 -0.1875 C 5.859375 -0.1875 5.890625 -0.15625 5.890625 -0.09375 C 5.890625 -0.03125 5.859375 0 5.796875 0 L 0.09375 0 C 0.03125 0 0 -0.03125 0 -0.09375 C 0 -0.15625 0.03125 -0.1875 0.09375 -0.1875 C 0.601562 -0.1875 1 -0.234375 1.28125 -0.328125 C 1.570312 -0.429688 1.78125 -0.535156 1.90625 -0.640625 C 2.050781 -0.753906 2.144531 -0.859375 2.1875 -0.953125 C 2.226562 -1.046875 2.25 -1.09375 2.25 -1.09375 C 2.25 -1.101562 2.25 -1.109375 2.25 -1.109375 L 5.59375 -13.34375 C 5.601562 -13.394531 5.632812 -13.421875 5.6875 -13.421875 L 5.78125 -13.40625 L 7.03125 -13.421875 C 7.082031 -13.421875 7.113281 -13.394531 7.125 -13.34375 L 10.46875 -1.109375 C 10.46875 -1.097656 10.484375 -1.046875 10.515625 -0.953125 C 10.554688 -0.859375 10.644531 -0.757812 10.78125 -0.65625 C 10.914062 -0.550781 11.125 -0.445312 11.40625 -0.34375 C 11.6875 -0.238281 12.09375 -0.1875 12.625 -0.1875 Z M 12.625 -0.1875 "/></g></g></g><g fill="#fffff6" fill-opacity="1"><g transform="translate(71.240305, 120.625075)"><g><path d="M 12.65625 -5.546875 C 12.71875 -5.546875 12.75 -5.515625 12.75 -5.453125 C 12.75 -5.453125 12.75 -5.445312 12.75 -5.4375 C 12.601562 -4.644531 12.335938 -3.914062 11.953125 -3.25 C 11.566406 -2.59375 11.085938 -2.019531 10.515625 -1.53125 C 9.953125 -1.050781 9.320312 -0.675781 8.625 -0.40625 C 7.925781 -0.132812 7.191406 0 6.421875 0 C 5.566406 0 4.75 -0.164062 3.96875 -0.5 C 3.1875 -0.84375 2.492188 -1.328125 1.890625 -1.953125 C 1.273438 -2.597656 0.804688 -3.328125 0.484375 -4.140625 C 0.160156 -4.953125 0 -5.804688 0 -6.703125 C 0 -7.597656 0.160156 -8.453125 0.484375 -9.265625 C 0.804688 -10.085938 1.273438 -10.8125 1.890625 -11.4375 C 2.492188 -12.070312 3.1875 -12.554688 3.96875 -12.890625 C 4.75 -13.234375 5.566406 -13.40625 6.421875 -13.40625 C 7.191406 -13.40625 7.925781 -13.269531 8.625 -13 C 9.320312 -12.738281 9.953125 -12.363281 10.515625 -11.875 C 11.085938 -11.382812 11.566406 -10.804688 11.953125 -10.140625 C 12.335938 -9.484375 12.601562 -8.757812 12.75 -7.96875 C 12.75 -7.945312 12.742188 -7.925781 12.734375 -7.90625 C 12.722656 -7.894531 12.707031 -7.890625 12.6875 -7.890625 L 11.640625 -7.890625 C 11.597656 -7.890625 11.578125 -7.910156 11.578125 -7.953125 C 11.515625 -8.734375 11.34375 -9.445312 11.0625 -10.09375 C 10.78125 -10.738281 10.410156 -11.289062 9.953125 -11.75 C 9.492188 -12.207031 8.96875 -12.539062 8.375 -12.75 C 7.25 -13.132812 6.113281 -13.039062 4.96875 -12.46875 C 4.207031 -12.09375 3.535156 -11.546875 2.953125 -10.828125 C 2.378906 -10.117188 1.941406 -9.300781 1.640625 -8.375 C 1.378906 -7.539062 1.253906 -6.710938 1.265625 -5.890625 C 1.285156 -5.066406 1.421875 -4.300781 1.671875 -3.59375 C 1.929688 -2.894531 2.300781 -2.285156 2.78125 -1.765625 C 3.269531 -1.253906 3.84375 -0.882812 4.5 -0.65625 C 5.613281 -0.269531 6.742188 -0.363281 7.890625 -0.9375 C 8.648438 -1.3125 9.316406 -1.851562 9.890625 -2.5625 C 10.472656 -3.28125 10.910156 -4.109375 11.203125 -5.046875 C 11.234375 -5.128906 11.265625 -5.21875 11.296875 -5.3125 C 10.109375 -5.238281 9.125 -5.070312 8.34375 -4.8125 C 7.164062 -4.425781 6.578125 -3.890625 6.578125 -3.203125 L 6.578125 -2.84375 C 6.578125 -2.78125 6.546875 -2.75 6.484375 -2.75 C 6.421875 -2.75 6.390625 -2.78125 6.390625 -2.84375 L 6.390625 -5.453125 C 6.390625 -5.515625 6.421875 -5.546875 6.484375 -5.546875 Z M 12.65625 -5.546875 "/></g></g></g><g fill="#fffff6" fill-opacity="1"><g transform="translate(84.742043, 120.625075)"><g><path d="M 5.796875 -0.1875 C 5.859375 -0.1875 5.890625 -0.15625 5.890625 -0.09375 C 5.890625 -0.03125 5.859375 0 5.796875 0 L 0.09375 0 C 0.03125 0 0 -0.03125 0 -0.09375 C 0 -0.15625 0.03125 -0.1875 0.09375 -0.1875 C 0.695312 -0.1875 1.191406 -0.253906 1.578125 -0.390625 C 2.023438 -0.554688 2.25 -0.785156 2.25 -1.078125 C 2.25 -1.078125 2.25 -1.082031 2.25 -1.09375 L 2.25 -12.34375 C 2.25 -12.644531 2.023438 -12.875 1.578125 -13.03125 C 1.191406 -13.175781 0.695312 -13.25 0.09375 -13.25 C 0.03125 -13.25 0 -13.273438 0 -13.328125 C 0 -13.398438 0.03125 -13.4375 0.09375 -13.4375 L 5.796875 -13.4375 C 5.859375 -13.4375 5.890625 -13.398438 5.890625 -13.328125 C 5.890625 -13.273438 5.859375 -13.25 5.796875 -13.25 C 5.191406 -13.25 4.695312 -13.175781 4.3125 -13.03125 C 3.863281 -12.863281 3.640625 -12.632812 3.640625 -12.34375 L 3.640625 -1.078125 C 3.640625 -0.785156 3.863281 -0.554688 4.3125 -0.390625 C 4.695312 -0.253906 5.191406 -0.1875 5.796875 -0.1875 Z M 5.796875 -0.1875 "/></g></g></g><g fill="#fffff6" fill-opacity="1"><g transform="translate(91.394196, 120.625075)"><g><path d="M 12.859375 -13.4375 C 12.929688 -13.4375 12.96875 -13.398438 12.96875 -13.328125 C 12.96875 -13.273438 12.929688 -13.25 12.859375 -13.25 C 12.265625 -13.25 11.769531 -13.175781 11.375 -13.03125 C 10.9375 -12.863281 10.71875 -12.632812 10.71875 -12.34375 L 10.71875 -0.09375 C 10.71875 -0.03125 10.679688 0 10.609375 0 L 9.40625 0 C 9.40625 0 9.398438 0 9.390625 0 L 9.375 -0.015625 C 9.351562 -0.0234375 9.335938 -0.0390625 9.328125 -0.0625 L 9.125 -0.53125 C 7.5625 -4.039062 6.34375 -6.625 5.46875 -8.28125 C 5.019531 -9.113281 4.65625 -9.726562 4.375 -10.125 C 4.195312 -10.375 4.066406 -10.519531 3.984375 -10.5625 C 3.898438 -10.613281 3.847656 -10.640625 3.828125 -10.640625 C 3.703125 -10.617188 3.640625 -10.253906 3.640625 -9.546875 L 3.640625 -1.078125 C 3.640625 -0.785156 3.863281 -0.554688 4.3125 -0.390625 C 4.695312 -0.253906 5.191406 -0.1875 5.796875 -0.1875 C 5.859375 -0.1875 5.890625 -0.15625 5.890625 -0.09375 C 5.890625 -0.03125 5.859375 0 5.796875 0 L 0.09375 0 C 0.03125 0 0 -0.03125 0 -0.09375 C 0 -0.15625 0.03125 -0.1875 0.09375 -0.1875 C 0.695312 -0.1875 1.191406 -0.253906 1.578125 -0.390625 C 2.023438 -0.554688 2.25 -0.785156 2.25 -1.078125 L 2.25 -12.34375 C 2.25 -12.644531 2.023438 -12.875 1.578125 -13.03125 C 1.191406 -13.175781 0.695312 -13.25 0.09375 -13.25 C 0.03125 -13.25 0 -13.273438 0 -13.328125 C 0 -13.398438 0.03125 -13.4375 0.09375 -13.4375 L 3.546875 -13.4375 C 3.546875 -13.4375 3.550781 -13.429688 3.5625 -13.421875 C 3.5625 -13.421875 3.566406 -13.421875 3.578125 -13.421875 C 3.585938 -13.421875 3.59375 -13.414062 3.59375 -13.40625 C 3.601562 -13.40625 3.609375 -13.40625 3.609375 -13.40625 C 3.609375 -13.394531 3.613281 -13.390625 3.625 -13.390625 C 3.625 -13.378906 3.625 -13.375 3.625 -13.375 L 3.84375 -12.890625 C 5.414062 -9.367188 6.632812 -6.78125 7.5 -5.125 C 7.945312 -4.289062 8.3125 -3.675781 8.59375 -3.28125 C 8.769531 -3.03125 8.898438 -2.875 8.984375 -2.8125 C 9.066406 -2.757812 9.117188 -2.738281 9.140625 -2.75 C 9.203125 -2.757812 9.242188 -2.835938 9.265625 -2.984375 C 9.296875 -3.128906 9.3125 -3.289062 9.3125 -3.46875 C 9.320312 -3.644531 9.328125 -3.785156 9.328125 -3.890625 L 9.328125 -12.34375 C 9.328125 -12.632812 9.101562 -12.863281 8.65625 -13.03125 C 8.257812 -13.175781 7.765625 -13.25 7.171875 -13.25 C 7.109375 -13.25 7.078125 -13.273438 7.078125 -13.328125 C 7.078125 -13.398438 7.109375 -13.4375 7.171875 -13.4375 Z M 12.859375 -13.4375 "/></g></g></g><g fill="#fffff6" fill-opacity="1"><g transform="translate(105.123752, 120.625075)"><g><path d="M 7.75 -5.859375 L 5.796875 -12.890625 L 4.203125 -4.1875 L 4.796875 -4.296875 C 5.617188 -4.503906 6.265625 -4.734375 6.734375 -4.984375 C 7.210938 -5.234375 7.550781 -5.523438 7.75 -5.859375 Z M 12.625 -0.1875 C 12.6875 -0.1875 12.71875 -0.15625 12.71875 -0.09375 C 12.71875 -0.03125 12.6875 0 12.625 0 L 6.90625 0 C 6.84375 0 6.8125 -0.03125 6.8125 -0.09375 C 6.8125 -0.15625 6.84375 -0.1875 6.90625 -0.1875 C 7.570312 -0.1875 8.054688 -0.242188 8.359375 -0.359375 C 8.660156 -0.472656 8.859375 -0.59375 8.953125 -0.71875 C 9.023438 -0.800781 9.0625 -0.875 9.0625 -0.9375 C 9.0625 -1.007812 9.0625 -1.050781 9.0625 -1.0625 L 8.078125 -4.640625 L 6.71875 -4.40625 C 6.007812 -4.226562 5.4375 -4.035156 5 -3.828125 C 4.570312 -3.628906 4.25 -3.40625 4.03125 -3.15625 L 3.640625 -1.0625 C 3.640625 -1.0625 3.640625 -1.023438 3.640625 -0.953125 C 3.640625 -0.878906 3.675781 -0.800781 3.75 -0.71875 C 3.851562 -0.59375 4.050781 -0.472656 4.34375 -0.359375 C 4.644531 -0.242188 5.128906 -0.1875 5.796875 -0.1875 C 5.859375 -0.1875 5.890625 -0.15625 5.890625 -0.09375 C 5.890625 -0.03125 5.859375 0 5.796875 0 L 0.09375 0 C 0.03125 0 0 -0.03125 0 -0.09375 C 0 -0.15625 0.03125 -0.1875 0.09375 -0.1875 C 0.601562 -0.1875 1 -0.234375 1.28125 -0.328125 C 1.570312 -0.429688 1.78125 -0.535156 1.90625 -0.640625 C 2.050781 -0.753906 2.144531 -0.859375 2.1875 -0.953125 C 2.226562 -1.046875 2.25 -1.09375 2.25 -1.09375 C 2.25 -1.101562 2.25 -1.109375 2.25 -1.109375 L 5.59375 -13.34375 C 5.601562 -13.394531 5.632812 -13.421875 5.6875 -13.421875 L 5.78125 -13.40625 L 7.03125 -13.421875 C 7.082031 -13.421875 7.113281 -13.394531 7.125 -13.34375 L 10.46875 -1.109375 C 10.46875 -1.097656 10.484375 -1.046875 10.515625 -0.953125 C 10.554688 -0.859375 10.644531 -0.757812 10.78125 -0.65625 C 10.914062 -0.550781 11.125 -0.445312 11.40625 -0.34375 C 11.6875 -0.238281 12.09375 -0.1875 12.625 -0.1875 Z M 12.625 -0.1875 "/></g></g></g><g fill="#fffff6" fill-opacity="1"><g transform="translate(118.595118, 120.625075)"><g><path d="M 8.5 -6.78125 C 9.101562 -6.78125 9.648438 -6.925781 10.140625 -7.21875 C 10.628906 -7.507812 11.015625 -7.898438 11.296875 -8.390625 C 11.585938 -8.878906 11.734375 -9.425781 11.734375 -10.03125 C 11.734375 -10.613281 11.585938 -11.148438 11.296875 -11.640625 C 11.015625 -12.128906 10.628906 -12.519531 10.140625 -12.8125 C 9.648438 -13.101562 9.101562 -13.25 8.5 -13.25 L 5.78125 -13.25 C 5.425781 -13.25 5.082031 -13.21875 4.75 -13.15625 C 4.425781 -13.101562 4.15625 -13.007812 3.9375 -12.875 C 3.71875 -12.738281 3.609375 -12.554688 3.609375 -12.328125 L 3.609375 -7.703125 C 3.609375 -7.398438 3.832031 -7.164062 4.28125 -7 C 4.675781 -6.851562 5.175781 -6.78125 5.78125 -6.78125 Z M 13.046875 -2.21875 C 13.078125 -2.050781 13.097656 -1.898438 13.109375 -1.765625 C 13.117188 -1.640625 13.125 -1.535156 13.125 -1.453125 C 13.125 -1.398438 13.125 -1.359375 13.125 -1.328125 C 13.125 -1.296875 13.125 -1.269531 13.125 -1.25 L 13.125 -0.078125 C 13.125 -0.0234375 13.09375 0 13.03125 0 L 9.9375 0 C 9.882812 0 9.859375 -0.0234375 9.859375 -0.078125 C 9.859375 -0.140625 9.882812 -0.171875 9.9375 -0.171875 C 10.757812 -0.171875 11.441406 -0.253906 11.984375 -0.421875 C 12.609375 -0.617188 12.929688 -0.894531 12.953125 -1.25 C 12.953125 -1.257812 12.953125 -1.273438 12.953125 -1.296875 L 12.953125 -1.46875 C 12.941406 -1.613281 12.914062 -1.757812 12.875 -1.90625 C 12.832031 -2.09375 12.75 -2.316406 12.625 -2.578125 C 12.5 -2.847656 12.3125 -3.128906 12.0625 -3.421875 C 11.425781 -4.128906 10.5 -4.6875 9.28125 -5.09375 C 7.789062 -5.582031 5.90625 -5.835938 3.625 -5.859375 C 3.613281 -5.804688 3.609375 -5.753906 3.609375 -5.703125 L 3.609375 -1.078125 C 3.609375 -0.859375 3.71875 -0.675781 3.9375 -0.53125 C 4.15625 -0.394531 4.425781 -0.300781 4.75 -0.25 C 5.082031 -0.195312 5.425781 -0.171875 5.78125 -0.171875 C 5.832031 -0.171875 5.859375 -0.140625 5.859375 -0.078125 C 5.859375 -0.0234375 5.832031 0 5.78125 0 L 0.078125 0 C 0.0234375 0 0 -0.0234375 0 -0.078125 C 0 -0.140625 0.0234375 -0.171875 0.078125 -0.171875 C 0.679688 -0.171875 1.179688 -0.238281 1.578125 -0.375 C 2.023438 -0.539062 2.25 -0.773438 2.25 -1.078125 L 2.25 -12.328125 C 2.25 -12.628906 2.023438 -12.863281 1.578125 -13.03125 C 1.179688 -13.175781 0.679688 -13.25 0.078125 -13.25 C 0.0234375 -13.25 0 -13.273438 0 -13.328125 C 0 -13.378906 0.0234375 -13.40625 0.078125 -13.40625 L 9.71875 -13.40625 C 10.34375 -13.40625 10.910156 -13.253906 11.421875 -12.953125 C 11.941406 -12.648438 12.351562 -12.238281 12.65625 -11.71875 C 12.957031 -11.207031 13.109375 -10.644531 13.109375 -10.03125 C 13.109375 -9.394531 12.957031 -8.820312 12.65625 -8.3125 C 12.351562 -7.800781 11.941406 -7.390625 11.421875 -7.078125 C 10.910156 -6.773438 10.34375 -6.625 9.71875 -6.625 L 6.8125 -6.625 C 7.75 -6.5 8.585938 -6.304688 9.328125 -6.046875 C 10.453125 -5.628906 11.335938 -5.054688 11.984375 -4.328125 C 12.328125 -3.941406 12.578125 -3.5625 12.734375 -3.1875 C 12.890625 -2.8125 12.992188 -2.488281 13.046875 -2.21875 Z M 13.046875 -2.21875 "/></g></g></g><g fill="#fffff6" fill-opacity="1"><g transform="translate(132.476548, 120.625075)"><g><path d="M 12.84375 -13.359375 C 12.851562 -13.335938 12.859375 -13.320312 12.859375 -13.3125 C 12.859375 -13.300781 12.859375 -13.296875 12.859375 -13.296875 C 12.859375 -13.296875 12.851562 -13.285156 12.84375 -13.265625 L 12.390625 -12.796875 C 10.273438 -10.585938 8.515625 -8.6875 7.109375 -7.09375 L 7.109375 -1.0625 C 7.109375 -0.78125 7.304688 -0.554688 7.703125 -0.390625 C 8.097656 -0.222656 8.625 -0.140625 9.28125 -0.140625 C 9.332031 -0.140625 9.359375 -0.113281 9.359375 -0.0625 C 9.359375 -0.0195312 9.332031 0 9.28125 0 L 3.578125 0 C 3.535156 0 3.515625 -0.0195312 3.515625 -0.0625 C 3.515625 -0.113281 3.535156 -0.140625 3.578125 -0.140625 C 4.242188 -0.140625 4.773438 -0.222656 5.171875 -0.390625 C 5.566406 -0.554688 5.765625 -0.78125 5.765625 -1.0625 L 5.765625 -7.09375 C 4.347656 -8.6875 2.578125 -10.59375 0.453125 -12.8125 L 0.03125 -13.265625 C 0.0078125 -13.285156 0.00390625 -13.304688 0.015625 -13.328125 C 0.015625 -13.335938 0.0195312 -13.347656 0.03125 -13.359375 C 0.0390625 -13.367188 0.0546875 -13.375 0.078125 -13.375 L 3.703125 -13.375 C 3.765625 -13.375 3.820312 -13.375 3.875 -13.375 C 3.9375 -13.375 3.992188 -13.375 4.046875 -13.375 C 4.109375 -13.375 4.160156 -13.375 4.203125 -13.375 C 4.242188 -13.375 4.265625 -13.351562 4.265625 -13.3125 C 4.265625 -13.269531 4.242188 -13.25 4.203125 -13.25 L 3.703125 -13.25 C 3.429688 -13.25 3.203125 -13.222656 3.015625 -13.171875 C 2.828125 -13.128906 2.703125 -13.035156 2.640625 -12.890625 C 2.492188 -12.554688 2.726562 -11.910156 3.34375 -10.953125 C 3.957031 -10.003906 4.984375 -8.703125 6.421875 -7.046875 C 7.960938 -8.828125 9.03125 -10.207031 9.625 -11.1875 C 10.132812 -12.019531 10.320312 -12.585938 10.1875 -12.890625 C 10.113281 -13.046875 9.976562 -13.144531 9.78125 -13.1875 C 9.59375 -13.226562 9.378906 -13.25 9.140625 -13.25 L 8.671875 -13.25 C 8.617188 -13.25 8.59375 -13.269531 8.59375 -13.3125 C 8.59375 -13.351562 8.617188 -13.375 8.671875 -13.375 C 8.703125 -13.375 8.753906 -13.375 8.828125 -13.375 C 8.878906 -13.375 8.929688 -13.375 8.984375 -13.375 C 9.035156 -13.375 9.085938 -13.375 9.140625 -13.375 L 12.78125 -13.375 C 12.800781 -13.375 12.820312 -13.367188 12.84375 -13.359375 Z M 12.84375 -13.359375 "/></g></g></g><g fill="#fffff6" fill-opacity="1"><g transform="translate(18.843752, 141.625073)"><g><path d="M 5.796875 -0.1875 C 5.859375 -0.1875 5.890625 -0.15625 5.890625 -0.09375 C 5.890625 -0.03125 5.859375 0 5.796875 0 L 0.09375 0 C 0.03125 0 0 -0.03125 0 -0.09375 C 0 -0.15625 0.03125 -0.1875 0.09375 -0.1875 C 0.695312 -0.1875 1.191406 -0.253906 1.578125 -0.390625 C 2.023438 -0.554688 2.25 -0.785156 2.25 -1.078125 C 2.25 -1.078125 2.25 -1.082031 2.25 -1.09375 L 2.25 -12.34375 C 2.25 -12.644531 2.023438 -12.875 1.578125 -13.03125 C 1.191406 -13.175781 0.695312 -13.25 0.09375 -13.25 C 0.03125 -13.25 0 -13.273438 0 -13.328125 C 0 -13.398438 0.03125 -13.4375 0.09375 -13.4375 L 5.796875 -13.4375 C 5.859375 -13.4375 5.890625 -13.398438 5.890625 -13.328125 C 5.890625 -13.273438 5.859375 -13.25 5.796875 -13.25 C 5.191406 -13.25 4.695312 -13.175781 4.3125 -13.03125 C 3.863281 -12.863281 3.640625 -12.632812 3.640625 -12.34375 L 3.640625 -1.078125 C 3.640625 -0.785156 3.863281 -0.554688 4.3125 -0.390625 C 4.695312 -0.253906 5.191406 -0.1875 5.796875 -0.1875 Z M 5.796875 -0.1875 "/></g></g></g><g fill="#fffff6" fill-opacity="1"><g transform="translate(25.495905, 141.625073)"><g><path d="M 12.859375 -13.4375 C 12.929688 -13.4375 12.96875 -13.398438 12.96875 -13.328125 C 12.96875 -13.273438 12.929688 -13.25 12.859375 -13.25 C 12.265625 -13.25 11.769531 -13.175781 11.375 -13.03125 C 10.9375 -12.863281 10.71875 -12.632812 10.71875 -12.34375 L 10.71875 -0.09375 C 10.71875 -0.03125 10.679688 0 10.609375 0 L 9.40625 0 C 9.40625 0 9.398438 0 9.390625 0 L 9.375 -0.015625 C 9.351562 -0.0234375 9.335938 -0.0390625 9.328125 -0.0625 L 9.125 -0.53125 C 7.5625 -4.039062 6.34375 -6.625 5.46875 -8.28125 C 5.019531 -9.113281 4.65625 -9.726562 4.375 -10.125 C 4.195312 -10.375 4.066406 -10.519531 3.984375 -10.5625 C 3.898438 -10.613281 3.847656 -10.640625 3.828125 -10.640625 C 3.703125 -10.617188 3.640625 -10.253906 3.640625 -9.546875 L 3.640625 -1.078125 C 3.640625 -0.785156 3.863281 -0.554688 4.3125 -0.390625 C 4.695312 -0.253906 5.191406 -0.1875 5.796875 -0.1875 C 5.859375 -0.1875 5.890625 -0.15625 5.890625 -0.09375 C 5.890625 -0.03125 5.859375 0 5.796875 0 L 0.09375 0 C 0.03125 0 0 -0.03125 0 -0.09375 C 0 -0.15625 0.03125 -0.1875 0.09375 -0.1875 C 0.695312 -0.1875 1.191406 -0.253906 1.578125 -0.390625 C 2.023438 -0.554688 2.25 -0.785156 2.25 -1.078125 L 2.25 -12.34375 C 2.25 -12.644531 2.023438 -12.875 1.578125 -13.03125 C 1.191406 -13.175781 0.695312 -13.25 0.09375 -13.25 C 0.03125 -13.25 0 -13.273438 0 -13.328125 C 0 -13.398438 0.03125 -13.4375 0.09375 -13.4375 L 3.546875 -13.4375 C 3.546875 -13.4375 3.550781 -13.429688 3.5625 -13.421875 C 3.5625 -13.421875 3.566406 -13.421875 3.578125 -13.421875 C 3.585938 -13.421875 3.59375 -13.414062 3.59375 -13.40625 C 3.601562 -13.40625 3.609375 -13.40625 3.609375 -13.40625 C 3.609375 -13.394531 3.613281 -13.390625 3.625 -13.390625 C 3.625 -13.378906 3.625 -13.375 3.625 -13.375 L 3.84375 -12.890625 C 5.414062 -9.367188 6.632812 -6.78125 7.5 -5.125 C 7.945312 -4.289062 8.3125 -3.675781 8.59375 -3.28125 C 8.769531 -3.03125 8.898438 -2.875 8.984375 -2.8125 C 9.066406 -2.757812 9.117188 -2.738281 9.140625 -2.75 C 9.203125 -2.757812 9.242188 -2.835938 9.265625 -2.984375 C 9.296875 -3.128906 9.3125 -3.289062 9.3125 -3.46875 C 9.320312 -3.644531 9.328125 -3.785156 9.328125 -3.890625 L 9.328125 -12.34375 C 9.328125 -12.632812 9.101562 -12.863281 8.65625 -13.03125 C 8.257812 -13.175781 7.765625 -13.25 7.171875 -13.25 C 7.109375 -13.25 7.078125 -13.273438 7.078125 -13.328125 C 7.078125 -13.398438 7.109375 -13.4375 7.171875 -13.4375 Z M 12.859375 -13.4375 "/></g></g></g><g fill="#fffff6" fill-opacity="1"><g transform="translate(39.225461, 141.625073)"><g><path d="M 12.390625 -8.53125 C 12.398438 -8.5 12.398438 -8.46875 12.390625 -8.4375 C 12.367188 -8.414062 12.34375 -8.40625 12.3125 -8.40625 L 9.4375 -8.40625 C 9.375 -8.40625 9.34375 -8.4375 9.34375 -8.5 C 9.34375 -8.5625 9.375 -8.59375 9.4375 -8.59375 C 9.9375 -8.59375 10.296875 -8.640625 10.515625 -8.734375 C 10.742188 -8.835938 10.894531 -8.9375 10.96875 -9.03125 C 11.039062 -9.132812 11.066406 -9.226562 11.046875 -9.3125 C 11.035156 -9.40625 11.03125 -9.457031 11.03125 -9.46875 C 11.03125 -9.46875 11.03125 -9.472656 11.03125 -9.484375 C 10.769531 -10.285156 10.382812 -10.972656 9.875 -11.546875 C 9.375 -12.117188 8.78125 -12.519531 8.09375 -12.75 C 7.40625 -13 6.695312 -13.054688 5.96875 -12.921875 C 5.25 -12.785156 4.5625 -12.476562 3.90625 -12 C 3.257812 -11.519531 2.695312 -10.894531 2.21875 -10.125 C 2.019531 -9.820312 1.914062 -9.492188 1.90625 -9.140625 C 1.90625 -8.785156 1.984375 -8.457031 2.140625 -8.15625 C 2.359375 -7.757812 2.675781 -7.46875 3.09375 -7.28125 C 3.519531 -7.101562 3.988281 -6.984375 4.5 -6.921875 C 5.019531 -6.867188 5.539062 -6.84375 6.0625 -6.84375 C 6.0625 -6.84375 6.066406 -6.84375 6.078125 -6.84375 L 6.09375 -6.84375 C 6.132812 -6.84375 6.164062 -6.84375 6.1875 -6.84375 C 6.300781 -6.832031 6.421875 -6.828125 6.546875 -6.828125 C 6.671875 -6.828125 6.789062 -6.828125 6.90625 -6.828125 L 6.921875 -6.828125 C 7.429688 -6.828125 7.9375 -6.816406 8.4375 -6.796875 C 8.945312 -6.785156 9.414062 -6.738281 9.84375 -6.65625 C 10.832031 -6.445312 11.492188 -6.015625 11.828125 -5.359375 C 11.992188 -5.035156 12.070312 -4.6875 12.0625 -4.3125 C 12.050781 -3.945312 11.945312 -3.601562 11.75 -3.28125 C 11.1875 -2.289062 10.421875 -1.5 9.453125 -0.90625 C 8.453125 -0.3125 7.378906 -0.015625 6.234375 -0.015625 C 4.941406 -0.015625 3.757812 -0.382812 2.6875 -1.125 C 1.644531 -1.832031 0.867188 -2.78125 0.359375 -3.96875 L 0.34375 -3.984375 C 0.320312 -4.023438 0.304688 -4.0625 0.296875 -4.09375 L 0.015625 -4.96875 C 0.00390625 -5 0.0078125 -5.023438 0.03125 -5.046875 C 0.0390625 -5.078125 0.0664062 -5.09375 0.109375 -5.09375 L 2.984375 -5.09375 C 3.035156 -5.09375 3.0625 -5.0625 3.0625 -5 C 3.0625 -4.9375 3.035156 -4.90625 2.984375 -4.90625 C 2.472656 -4.90625 2.101562 -4.851562 1.875 -4.75 C 1.65625 -4.65625 1.507812 -4.554688 1.4375 -4.453125 C 1.375 -4.347656 1.347656 -4.253906 1.359375 -4.171875 C 1.367188 -4.085938 1.375 -4.046875 1.375 -4.046875 C 1.375 -4.035156 1.375 -4.03125 1.375 -4.03125 C 1.625 -3.21875 2.003906 -2.519531 2.515625 -1.9375 C 3.023438 -1.363281 3.625 -0.960938 4.3125 -0.734375 C 5 -0.484375 5.703125 -0.425781 6.421875 -0.5625 C 7.148438 -0.707031 7.84375 -1.015625 8.5 -1.484375 C 9.15625 -1.960938 9.71875 -2.585938 10.1875 -3.359375 C 10.382812 -3.660156 10.488281 -3.988281 10.5 -4.34375 C 10.507812 -4.707031 10.429688 -5.039062 10.265625 -5.34375 C 10.046875 -5.726562 9.726562 -6.007812 9.3125 -6.1875 C 8.894531 -6.375 8.425781 -6.492188 7.90625 -6.546875 C 7.382812 -6.609375 6.863281 -6.644531 6.34375 -6.65625 L 6.328125 -6.65625 C 6.304688 -6.65625 6.273438 -6.65625 6.234375 -6.65625 C 6.109375 -6.65625 5.984375 -6.65625 5.859375 -6.65625 C 5.742188 -6.65625 5.625 -6.65625 5.5 -6.65625 C 4.988281 -6.65625 4.476562 -6.660156 3.96875 -6.671875 C 3.46875 -6.691406 3 -6.742188 2.5625 -6.828125 C 1.570312 -7.035156 0.910156 -7.46875 0.578125 -8.125 C 0.410156 -8.457031 0.332031 -8.804688 0.34375 -9.171875 C 0.351562 -9.535156 0.457031 -9.882812 0.65625 -10.21875 C 1.226562 -11.207031 2 -11.992188 2.96875 -12.578125 C 3.957031 -13.171875 5.03125 -13.46875 6.1875 -13.46875 C 7.46875 -13.46875 8.644531 -13.101562 9.71875 -12.375 C 10.757812 -11.65625 11.539062 -10.703125 12.0625 -9.515625 C 12.082031 -9.484375 12.097656 -9.445312 12.109375 -9.40625 Z M 12.390625 -8.53125 "/></g></g></g><g fill="#fffff6" fill-opacity="1"><g transform="translate(52.393077, 141.625073)"><g><path d="M 3.59375 -12.328125 L 3.59375 -7.6875 C 3.59375 -7.457031 3.703125 -7.273438 3.921875 -7.140625 C 4.140625 -7.003906 4.414062 -6.910156 4.75 -6.859375 C 5.082031 -6.804688 5.421875 -6.78125 5.765625 -6.78125 L 8.5 -6.78125 C 9.101562 -6.78125 9.648438 -6.921875 10.140625 -7.203125 C 10.628906 -7.492188 11.015625 -7.882812 11.296875 -8.375 C 11.585938 -8.863281 11.734375 -9.410156 11.734375 -10.015625 C 11.734375 -10.609375 11.585938 -11.148438 11.296875 -11.640625 C 11.015625 -12.128906 10.628906 -12.519531 10.140625 -12.8125 C 9.648438 -13.101562 9.101562 -13.25 8.5 -13.25 L 5.765625 -13.25 C 5.421875 -13.25 5.082031 -13.21875 4.75 -13.15625 C 4.414062 -13.101562 4.140625 -13.007812 3.921875 -12.875 C 3.703125 -12.738281 3.59375 -12.554688 3.59375 -12.328125 Z M 9.71875 -13.390625 C 10.332031 -13.390625 10.894531 -13.238281 11.40625 -12.9375 C 11.925781 -12.632812 12.335938 -12.222656 12.640625 -11.703125 C 12.941406 -11.191406 13.09375 -10.628906 13.09375 -10.015625 C 13.09375 -9.378906 12.941406 -8.804688 12.640625 -8.296875 C 12.335938 -7.785156 11.925781 -7.378906 11.40625 -7.078125 C 10.894531 -6.773438 10.332031 -6.625 9.71875 -6.625 L 5.765625 -6.625 C 5.421875 -6.625 5.082031 -6.59375 4.75 -6.53125 C 4.414062 -6.46875 4.140625 -6.367188 3.921875 -6.234375 C 3.703125 -6.109375 3.59375 -5.929688 3.59375 -5.703125 L 3.59375 -1.0625 C 3.59375 -0.84375 3.703125 -0.660156 3.921875 -0.515625 C 4.140625 -0.378906 4.414062 -0.285156 4.75 -0.234375 C 5.082031 -0.179688 5.421875 -0.15625 5.765625 -0.15625 C 5.816406 -0.15625 5.84375 -0.128906 5.84375 -0.078125 C 5.84375 -0.0234375 5.816406 0 5.765625 0 L 0.078125 0 C 0.0234375 0 0 -0.0234375 0 -0.078125 C 0 -0.128906 0.0234375 -0.15625 0.078125 -0.15625 C 0.421875 -0.15625 0.757812 -0.179688 1.09375 -0.234375 C 1.425781 -0.285156 1.703125 -0.378906 1.921875 -0.515625 C 2.140625 -0.660156 2.25 -0.84375 2.25 -1.0625 L 2.25 -12.328125 C 2.25 -12.554688 2.140625 -12.738281 1.921875 -12.875 C 1.703125 -13.007812 1.425781 -13.101562 1.09375 -13.15625 C 0.757812 -13.21875 0.421875 -13.25 0.078125 -13.25 C 0.0234375 -13.25 0 -13.269531 0 -13.3125 C 0 -13.363281 0.0234375 -13.390625 0.078125 -13.390625 Z M 9.71875 -13.390625 "/></g></g></g><g fill="#fffff6" fill-opacity="1"><g transform="translate(66.244136, 141.625073)"><g><path d="M 5.796875 -0.1875 C 5.859375 -0.1875 5.890625 -0.15625 5.890625 -0.09375 C 5.890625 -0.03125 5.859375 0 5.796875 0 L 0.09375 0 C 0.03125 0 0 -0.03125 0 -0.09375 C 0 -0.15625 0.03125 -0.1875 0.09375 -0.1875 C 0.695312 -0.1875 1.191406 -0.253906 1.578125 -0.390625 C 2.023438 -0.554688 2.25 -0.785156 2.25 -1.078125 C 2.25 -1.078125 2.25 -1.082031 2.25 -1.09375 L 2.25 -12.34375 C 2.25 -12.644531 2.023438 -12.875 1.578125 -13.03125 C 1.191406 -13.175781 0.695312 -13.25 0.09375 -13.25 C 0.03125 -13.25 0 -13.273438 0 -13.328125 C 0 -13.398438 0.03125 -13.4375 0.09375 -13.4375 L 5.796875 -13.4375 C 5.859375 -13.4375 5.890625 -13.398438 5.890625 -13.328125 C 5.890625 -13.273438 5.859375 -13.25 5.796875 -13.25 C 5.191406 -13.25 4.695312 -13.175781 4.3125 -13.03125 C 3.863281 -12.863281 3.640625 -12.632812 3.640625 -12.34375 L 3.640625 -1.078125 C 3.640625 -0.785156 3.863281 -0.554688 4.3125 -0.390625 C 4.695312 -0.253906 5.191406 -0.1875 5.796875 -0.1875 Z M 5.796875 -0.1875 "/></g></g></g><g fill="#fffff6" fill-opacity="1"><g transform="translate(72.896288, 141.625073)"><g><path d="M 8.5 -6.78125 C 9.101562 -6.78125 9.648438 -6.925781 10.140625 -7.21875 C 10.628906 -7.507812 11.015625 -7.898438 11.296875 -8.390625 C 11.585938 -8.878906 11.734375 -9.425781 11.734375 -10.03125 C 11.734375 -10.613281 11.585938 -11.148438 11.296875 -11.640625 C 11.015625 -12.128906 10.628906 -12.519531 10.140625 -12.8125 C 9.648438 -13.101562 9.101562 -13.25 8.5 -13.25 L 5.78125 -13.25 C 5.425781 -13.25 5.082031 -13.21875 4.75 -13.15625 C 4.425781 -13.101562 4.15625 -13.007812 3.9375 -12.875 C 3.71875 -12.738281 3.609375 -12.554688 3.609375 -12.328125 L 3.609375 -7.703125 C 3.609375 -7.398438 3.832031 -7.164062 4.28125 -7 C 4.675781 -6.851562 5.175781 -6.78125 5.78125 -6.78125 Z M 13.046875 -2.21875 C 13.078125 -2.050781 13.097656 -1.898438 13.109375 -1.765625 C 13.117188 -1.640625 13.125 -1.535156 13.125 -1.453125 C 13.125 -1.398438 13.125 -1.359375 13.125 -1.328125 C 13.125 -1.296875 13.125 -1.269531 13.125 -1.25 L 13.125 -0.078125 C 13.125 -0.0234375 13.09375 0 13.03125 0 L 9.9375 0 C 9.882812 0 9.859375 -0.0234375 9.859375 -0.078125 C 9.859375 -0.140625 9.882812 -0.171875 9.9375 -0.171875 C 10.757812 -0.171875 11.441406 -0.253906 11.984375 -0.421875 C 12.609375 -0.617188 12.929688 -0.894531 12.953125 -1.25 C 12.953125 -1.257812 12.953125 -1.273438 12.953125 -1.296875 L 12.953125 -1.46875 C 12.941406 -1.613281 12.914062 -1.757812 12.875 -1.90625 C 12.832031 -2.09375 12.75 -2.316406 12.625 -2.578125 C 12.5 -2.847656 12.3125 -3.128906 12.0625 -3.421875 C 11.425781 -4.128906 10.5 -4.6875 9.28125 -5.09375 C 7.789062 -5.582031 5.90625 -5.835938 3.625 -5.859375 C 3.613281 -5.804688 3.609375 -5.753906 3.609375 -5.703125 L 3.609375 -1.078125 C 3.609375 -0.859375 3.71875 -0.675781 3.9375 -0.53125 C 4.15625 -0.394531 4.425781 -0.300781 4.75 -0.25 C 5.082031 -0.195312 5.425781 -0.171875 5.78125 -0.171875 C 5.832031 -0.171875 5.859375 -0.140625 5.859375 -0.078125 C 5.859375 -0.0234375 5.832031 0 5.78125 0 L 0.078125 0 C 0.0234375 0 0 -0.0234375 0 -0.078125 C 0 -0.140625 0.0234375 -0.171875 0.078125 -0.171875 C 0.679688 -0.171875 1.179688 -0.238281 1.578125 -0.375 C 2.023438 -0.539062 2.25 -0.773438 2.25 -1.078125 L 2.25 -12.328125 C 2.25 -12.628906 2.023438 -12.863281 1.578125 -13.03125 C 1.179688 -13.175781 0.679688 -13.25 0.078125 -13.25 C 0.0234375 -13.25 0 -13.273438 0 -13.328125 C 0 -13.378906 0.0234375 -13.40625 0.078125 -13.40625 L 9.71875 -13.40625 C 10.34375 -13.40625 10.910156 -13.253906 11.421875 -12.953125 C 11.941406 -12.648438 12.351562 -12.238281 12.65625 -11.71875 C 12.957031 -11.207031 13.109375 -10.644531 13.109375 -10.03125 C 13.109375 -9.394531 12.957031 -8.820312 12.65625 -8.3125 C 12.351562 -7.800781 11.941406 -7.390625 11.421875 -7.078125 C 10.910156 -6.773438 10.34375 -6.625 9.71875 -6.625 L 6.8125 -6.625 C 7.75 -6.5 8.585938 -6.304688 9.328125 -6.046875 C 10.453125 -5.628906 11.335938 -5.054688 11.984375 -4.328125 C 12.328125 -3.941406 12.578125 -3.5625 12.734375 -3.1875 C 12.890625 -2.8125 12.992188 -2.488281 13.046875 -2.21875 Z M 13.046875 -2.21875 "/></g></g></g><g fill="#fffff6" fill-opacity="1"><g transform="translate(86.777718, 141.625073)"><g><path d="M 7.75 -5.859375 L 5.796875 -12.890625 L 4.203125 -4.1875 L 4.796875 -4.296875 C 5.617188 -4.503906 6.265625 -4.734375 6.734375 -4.984375 C 7.210938 -5.234375 7.550781 -5.523438 7.75 -5.859375 Z M 12.625 -0.1875 C 12.6875 -0.1875 12.71875 -0.15625 12.71875 -0.09375 C 12.71875 -0.03125 12.6875 0 12.625 0 L 6.90625 0 C 6.84375 0 6.8125 -0.03125 6.8125 -0.09375 C 6.8125 -0.15625 6.84375 -0.1875 6.90625 -0.1875 C 7.570312 -0.1875 8.054688 -0.242188 8.359375 -0.359375 C 8.660156 -0.472656 8.859375 -0.59375 8.953125 -0.71875 C 9.023438 -0.800781 9.0625 -0.875 9.0625 -0.9375 C 9.0625 -1.007812 9.0625 -1.050781 9.0625 -1.0625 L 8.078125 -4.640625 L 6.71875 -4.40625 C 6.007812 -4.226562 5.4375 -4.035156 5 -3.828125 C 4.570312 -3.628906 4.25 -3.40625 4.03125 -3.15625 L 3.640625 -1.0625 C 3.640625 -1.0625 3.640625 -1.023438 3.640625 -0.953125 C 3.640625 -0.878906 3.675781 -0.800781 3.75 -0.71875 C 3.851562 -0.59375 4.050781 -0.472656 4.34375 -0.359375 C 4.644531 -0.242188 5.128906 -0.1875 5.796875 -0.1875 C 5.859375 -0.1875 5.890625 -0.15625 5.890625 -0.09375 C 5.890625 -0.03125 5.859375 0 5.796875 0 L 0.09375 0 C 0.03125 0 0 -0.03125 0 -0.09375 C 0 -0.15625 0.03125 -0.1875 0.09375 -0.1875 C 0.601562 -0.1875 1 -0.234375 1.28125 -0.328125 C 1.570312 -0.429688 1.78125 -0.535156 1.90625 -0.640625 C 2.050781 -0.753906 2.144531 -0.859375 2.1875 -0.953125 C 2.226562 -1.046875 2.25 -1.09375 2.25 -1.09375 C 2.25 -1.101562 2.25 -1.109375 2.25 -1.109375 L 5.59375 -13.34375 C 5.601562 -13.394531 5.632812 -13.421875 5.6875 -13.421875 L 5.78125 -13.40625 L 7.03125 -13.421875 C 7.082031 -13.421875 7.113281 -13.394531 7.125 -13.34375 L 10.46875 -1.109375 C 10.46875 -1.097656 10.484375 -1.046875 10.515625 -0.953125 C 10.554688 -0.859375 10.644531 -0.757812 10.78125 -0.65625 C 10.914062 -0.550781 11.125 -0.445312 11.40625 -0.34375 C 11.6875 -0.238281 12.09375 -0.1875 12.625 -0.1875 Z M 12.625 -0.1875 "/></g></g></g><g fill="#fffff6" fill-opacity="1"><g transform="translate(100.249084, 141.625073)"><g><path d="M 12.859375 -13.421875 C 12.921875 -13.421875 12.953125 -13.390625 12.953125 -13.328125 L 12.953125 -11 C 12.953125 -10.9375 12.921875 -10.90625 12.859375 -10.90625 C 12.796875 -10.90625 12.765625 -10.9375 12.765625 -11 L 12.765625 -11.328125 C 12.765625 -11.796875 12.65625 -12.164062 12.4375 -12.4375 C 12.226562 -12.71875 11.957031 -12.921875 11.625 -13.046875 C 11.289062 -13.171875 10.953125 -13.234375 10.609375 -13.234375 L 9.078125 -13.234375 C 8.609375 -13.234375 8.234375 -13.125 7.953125 -12.90625 C 7.671875 -12.695312 7.46875 -12.425781 7.34375 -12.09375 C 7.226562 -11.769531 7.171875 -11.429688 7.171875 -11.078125 L 7.171875 -1.0625 C 7.179688 -0.851562 7.296875 -0.679688 7.515625 -0.546875 C 7.734375 -0.410156 8.003906 -0.316406 8.328125 -0.265625 C 8.648438 -0.210938 8.984375 -0.1875 9.328125 -0.1875 C 9.390625 -0.1875 9.421875 -0.15625 9.421875 -0.09375 C 9.421875 -0.03125 9.390625 0 9.328125 0 L 3.609375 0 C 3.554688 0 3.53125 -0.03125 3.53125 -0.09375 C 3.53125 -0.15625 3.554688 -0.1875 3.609375 -0.1875 C 4.222656 -0.1875 4.726562 -0.253906 5.125 -0.390625 C 5.550781 -0.554688 5.765625 -0.785156 5.765625 -1.078125 L 5.765625 -1.25 C 5.765625 -1.25 5.765625 -1.253906 5.765625 -1.265625 L 5.765625 -11.078125 C 5.765625 -11.429688 5.703125 -11.769531 5.578125 -12.09375 C 5.460938 -12.425781 5.265625 -12.695312 4.984375 -12.90625 C 4.710938 -13.125 4.34375 -13.234375 3.875 -13.234375 L 2.09375 -13.234375 C 1.625 -13.234375 1.25 -13.117188 0.96875 -12.890625 C 0.695312 -12.671875 0.5 -12.390625 0.375 -12.046875 C 0.25 -11.710938 0.1875 -11.363281 0.1875 -11 C 0.1875 -10.9375 0.15625 -10.90625 0.09375 -10.90625 C 0.03125 -10.90625 0 -10.9375 0 -11 L 0 -13.328125 C 0 -13.390625 0.03125 -13.421875 0.09375 -13.421875 L 5.859375 -13.421875 C 5.859375 -13.421875 5.863281 -13.421875 5.875 -13.421875 L 7.078125 -13.421875 C 7.078125 -13.421875 7.082031 -13.421875 7.09375 -13.421875 Z M 12.859375 -13.421875 "/></g></g></g><g fill="#fffff6" fill-opacity="1"><g transform="translate(113.963454, 141.625073)"><g><path d="M 5.796875 -0.1875 C 5.859375 -0.1875 5.890625 -0.15625 5.890625 -0.09375 C 5.890625 -0.03125 5.859375 0 5.796875 0 L 0.09375 0 C 0.03125 0 0 -0.03125 0 -0.09375 C 0 -0.15625 0.03125 -0.1875 0.09375 -0.1875 C 0.695312 -0.1875 1.191406 -0.253906 1.578125 -0.390625 C 2.023438 -0.554688 2.25 -0.785156 2.25 -1.078125 C 2.25 -1.078125 2.25 -1.082031 2.25 -1.09375 L 2.25 -12.34375 C 2.25 -12.644531 2.023438 -12.875 1.578125 -13.03125 C 1.191406 -13.175781 0.695312 -13.25 0.09375 -13.25 C 0.03125 -13.25 0 -13.273438 0 -13.328125 C 0 -13.398438 0.03125 -13.4375 0.09375 -13.4375 L 5.796875 -13.4375 C 5.859375 -13.4375 5.890625 -13.398438 5.890625 -13.328125 C 5.890625 -13.273438 5.859375 -13.25 5.796875 -13.25 C 5.191406 -13.25 4.695312 -13.175781 4.3125 -13.03125 C 3.863281 -12.863281 3.640625 -12.632812 3.640625 -12.34375 L 3.640625 -1.078125 C 3.640625 -0.785156 3.863281 -0.554688 4.3125 -0.390625 C 4.695312 -0.253906 5.191406 -0.1875 5.796875 -0.1875 Z M 5.796875 -0.1875 "/></g></g></g><g fill="#fffff6" fill-opacity="1"><g transform="translate(120.615607, 141.625073)"><g><path d="M 11.203125 -5.046875 C 11.484375 -5.867188 11.613281 -6.6875 11.59375 -7.5 C 11.582031 -8.320312 11.441406 -9.085938 11.171875 -9.796875 C 10.910156 -10.503906 10.539062 -11.113281 10.0625 -11.625 C 9.59375 -12.144531 9.03125 -12.519531 8.375 -12.75 C 7.925781 -12.90625 7.472656 -12.984375 7.015625 -12.984375 C 6.328125 -12.984375 5.644531 -12.8125 4.96875 -12.46875 C 4.207031 -12.09375 3.535156 -11.546875 2.953125 -10.828125 C 2.378906 -10.117188 1.941406 -9.300781 1.640625 -8.375 C 1.378906 -7.539062 1.253906 -6.710938 1.265625 -5.890625 C 1.285156 -5.066406 1.421875 -4.300781 1.671875 -3.59375 C 1.929688 -2.894531 2.300781 -2.285156 2.78125 -1.765625 C 3.269531 -1.253906 3.84375 -0.882812 4.5 -0.65625 C 5.613281 -0.269531 6.742188 -0.363281 7.890625 -0.9375 C 8.648438 -1.3125 9.316406 -1.851562 9.890625 -2.5625 C 10.472656 -3.28125 10.910156 -4.109375 11.203125 -5.046875 Z M 10.984375 -11.4375 C 11.585938 -10.8125 12.050781 -10.085938 12.375 -9.265625 C 12.695312 -8.453125 12.859375 -7.597656 12.859375 -6.703125 C 12.859375 -5.804688 12.695312 -4.953125 12.375 -4.140625 C 12.050781 -3.328125 11.585938 -2.597656 10.984375 -1.953125 C 10.367188 -1.328125 9.671875 -0.84375 8.890625 -0.5 C 8.109375 -0.164062 7.285156 0 6.421875 0 C 5.566406 0 4.75 -0.164062 3.96875 -0.5 C 3.1875 -0.84375 2.492188 -1.328125 1.890625 -1.953125 C 1.273438 -2.597656 0.804688 -3.328125 0.484375 -4.140625 C 0.160156 -4.953125 0 -5.804688 0 -6.703125 C 0 -7.597656 0.160156 -8.453125 0.484375 -9.265625 C 0.804688 -10.085938 1.273438 -10.8125 1.890625 -11.4375 C 2.492188 -12.070312 3.1875 -12.554688 3.96875 -12.890625 C 4.75 -13.234375 5.566406 -13.40625 6.421875 -13.40625 C 7.285156 -13.40625 8.109375 -13.234375 8.890625 -12.890625 C 9.671875 -12.554688 10.367188 -12.070312 10.984375 -11.4375 Z M 10.984375 -11.4375 "/></g></g></g><g fill="#fffff6" fill-opacity="1"><g transform="translate(134.238847, 141.625073)"><g><path d="M 12.859375 -13.4375 C 12.929688 -13.4375 12.96875 -13.398438 12.96875 -13.328125 C 12.96875 -13.273438 12.929688 -13.25 12.859375 -13.25 C 12.265625 -13.25 11.769531 -13.175781 11.375 -13.03125 C 10.9375 -12.863281 10.71875 -12.632812 10.71875 -12.34375 L 10.71875 -0.09375 C 10.71875 -0.03125 10.679688 0 10.609375 0 L 9.40625 0 C 9.40625 0 9.398438 0 9.390625 0 L 9.375 -0.015625 C 9.351562 -0.0234375 9.335938 -0.0390625 9.328125 -0.0625 L 9.125 -0.53125 C 7.5625 -4.039062 6.34375 -6.625 5.46875 -8.28125 C 5.019531 -9.113281 4.65625 -9.726562 4.375 -10.125 C 4.195312 -10.375 4.066406 -10.519531 3.984375 -10.5625 C 3.898438 -10.613281 3.847656 -10.640625 3.828125 -10.640625 C 3.703125 -10.617188 3.640625 -10.253906 3.640625 -9.546875 L 3.640625 -1.078125 C 3.640625 -0.785156 3.863281 -0.554688 4.3125 -0.390625 C 4.695312 -0.253906 5.191406 -0.1875 5.796875 -0.1875 C 5.859375 -0.1875 5.890625 -0.15625 5.890625 -0.09375 C 5.890625 -0.03125 5.859375 0 5.796875 0 L 0.09375 0 C 0.03125 0 0 -0.03125 0 -0.09375 C 0 -0.15625 0.03125 -0.1875 0.09375 -0.1875 C 0.695312 -0.1875 1.191406 -0.253906 1.578125 -0.390625 C 2.023438 -0.554688 2.25 -0.785156 2.25 -1.078125 L 2.25 -12.34375 C 2.25 -12.644531 2.023438 -12.875 1.578125 -13.03125 C 1.191406 -13.175781 0.695312 -13.25 0.09375 -13.25 C 0.03125 -13.25 0 -13.273438 0 -13.328125 C 0 -13.398438 0.03125 -13.4375 0.09375 -13.4375 L 3.546875 -13.4375 C 3.546875 -13.4375 3.550781 -13.429688 3.5625 -13.421875 C 3.5625 -13.421875 3.566406 -13.421875 3.578125 -13.421875 C 3.585938 -13.421875 3.59375 -13.414062 3.59375 -13.40625 C 3.601562 -13.40625 3.609375 -13.40625 3.609375 -13.40625 C 3.609375 -13.394531 3.613281 -13.390625 3.625 -13.390625 C 3.625 -13.378906 3.625 -13.375 3.625 -13.375 L 3.84375 -12.890625 C 5.414062 -9.367188 6.632812 -6.78125 7.5 -5.125 C 7.945312 -4.289062 8.3125 -3.675781 8.59375 -3.28125 C 8.769531 -3.03125 8.898438 -2.875 8.984375 -2.8125 C 9.066406 -2.757812 9.117188 -2.738281 9.140625 -2.75 C 9.203125 -2.757812 9.242188 -2.835938 9.265625 -2.984375 C 9.296875 -3.128906 9.3125 -3.289062 9.3125 -3.46875 C 9.320312 -3.644531 9.328125 -3.785156 9.328125 -3.890625 L 9.328125 -12.34375 C 9.328125 -12.632812 9.101562 -12.863281 8.65625 -13.03125 C 8.257812 -13.175781 7.765625 -13.25 7.171875 -13.25 C 7.109375 -13.25 7.078125 -13.273438 7.078125 -13.328125 C 7.078125 -13.398438 7.109375 -13.4375 7.171875 -13.4375 Z M 12.859375 -13.4375 "/></g></g></g><g fill="#fffff6" fill-opacity="1"><g transform="translate(147.968403, 141.625073)"><g><path d="M 12.390625 -8.53125 C 12.398438 -8.5 12.398438 -8.46875 12.390625 -8.4375 C 12.367188 -8.414062 12.34375 -8.40625 12.3125 -8.40625 L 9.4375 -8.40625 C 9.375 -8.40625 9.34375 -8.4375 9.34375 -8.5 C 9.34375 -8.5625 9.375 -8.59375 9.4375 -8.59375 C 9.9375 -8.59375 10.296875 -8.640625 10.515625 -8.734375 C 10.742188 -8.835938 10.894531 -8.9375 10.96875 -9.03125 C 11.039062 -9.132812 11.066406 -9.226562 11.046875 -9.3125 C 11.035156 -9.40625 11.03125 -9.457031 11.03125 -9.46875 C 11.03125 -9.46875 11.03125 -9.472656 11.03125 -9.484375 C 10.769531 -10.285156 10.382812 -10.972656 9.875 -11.546875 C 9.375 -12.117188 8.78125 -12.519531 8.09375 -12.75 C 7.40625 -13 6.695312 -13.054688 5.96875 -12.921875 C 5.25 -12.785156 4.5625 -12.476562 3.90625 -12 C 3.257812 -11.519531 2.695312 -10.894531 2.21875 -10.125 C 2.019531 -9.820312 1.914062 -9.492188 1.90625 -9.140625 C 1.90625 -8.785156 1.984375 -8.457031 2.140625 -8.15625 C 2.359375 -7.757812 2.675781 -7.46875 3.09375 -7.28125 C 3.519531 -7.101562 3.988281 -6.984375 4.5 -6.921875 C 5.019531 -6.867188 5.539062 -6.84375 6.0625 -6.84375 C 6.0625 -6.84375 6.066406 -6.84375 6.078125 -6.84375 L 6.09375 -6.84375 C 6.132812 -6.84375 6.164062 -6.84375 6.1875 -6.84375 C 6.300781 -6.832031 6.421875 -6.828125 6.546875 -6.828125 C 6.671875 -6.828125 6.789062 -6.828125 6.90625 -6.828125 L 6.921875 -6.828125 C 7.429688 -6.828125 7.9375 -6.816406 8.4375 -6.796875 C 8.945312 -6.785156 9.414062 -6.738281 9.84375 -6.65625 C 10.832031 -6.445312 11.492188 -6.015625 11.828125 -5.359375 C 11.992188 -5.035156 12.070312 -4.6875 12.0625 -4.3125 C 12.050781 -3.945312 11.945312 -3.601562 11.75 -3.28125 C 11.1875 -2.289062 10.421875 -1.5 9.453125 -0.90625 C 8.453125 -0.3125 7.378906 -0.015625 6.234375 -0.015625 C 4.941406 -0.015625 3.757812 -0.382812 2.6875 -1.125 C 1.644531 -1.832031 0.867188 -2.78125 0.359375 -3.96875 L 0.34375 -3.984375 C 0.320312 -4.023438 0.304688 -4.0625 0.296875 -4.09375 L 0.015625 -4.96875 C 0.00390625 -5 0.0078125 -5.023438 0.03125 -5.046875 C 0.0390625 -5.078125 0.0664062 -5.09375 0.109375 -5.09375 L 2.984375 -5.09375 C 3.035156 -5.09375 3.0625 -5.0625 3.0625 -5 C 3.0625 -4.9375 3.035156 -4.90625 2.984375 -4.90625 C 2.472656 -4.90625 2.101562 -4.851562 1.875 -4.75 C 1.65625 -4.65625 1.507812 -4.554688 1.4375 -4.453125 C 1.375 -4.347656 1.347656 -4.253906 1.359375 -4.171875 C 1.367188 -4.085938 1.375 -4.046875 1.375 -4.046875 C 1.375 -4.035156 1.375 -4.03125 1.375 -4.03125 C 1.625 -3.21875 2.003906 -2.519531 2.515625 -1.9375 C 3.023438 -1.363281 3.625 -0.960938 4.3125 -0.734375 C 5 -0.484375 5.703125 -0.425781 6.421875 -0.5625 C 7.148438 -0.707031 7.84375 -1.015625 8.5 -1.484375 C 9.15625 -1.960938 9.71875 -2.585938 10.1875 -3.359375 C 10.382812 -3.660156 10.488281 -3.988281 10.5 -4.34375 C 10.507812 -4.707031 10.429688 -5.039062 10.265625 -5.34375 C 10.046875 -5.726562 9.726562 -6.007812 9.3125 -6.1875 C 8.894531 -6.375 8.425781 -6.492188 7.90625 -6.546875 C 7.382812 -6.609375 6.863281 -6.644531 6.34375 -6.65625 L 6.328125 -6.65625 C 6.304688 -6.65625 6.273438 -6.65625 6.234375 -6.65625 C 6.109375 -6.65625 5.984375 -6.65625 5.859375 -6.65625 C 5.742188 -6.65625 5.625 -6.65625 5.5 -6.65625 C 4.988281 -6.65625 4.476562 -6.660156 3.96875 -6.671875 C 3.46875 -6.691406 3 -6.742188 2.5625 -6.828125 C 1.570312 -7.035156 0.910156 -7.46875 0.578125 -8.125 C 0.410156 -8.457031 0.332031 -8.804688 0.34375 -9.171875 C 0.351562 -9.535156 0.457031 -9.882812 0.65625 -10.21875 C 1.226562 -11.207031 2 -11.992188 2.96875 -12.578125 C 3.957031 -13.171875 5.03125 -13.46875 6.1875 -13.46875 C 7.46875 -13.46875 8.644531 -13.101562 9.71875 -12.375 C 10.757812 -11.65625 11.539062 -10.703125 12.0625 -9.515625 C 12.082031 -9.484375 12.097656 -9.445312 12.109375 -9.40625 Z M 12.390625 -8.53125 "/></g></g></g></svg>